<svg width="185" height="53" viewBox="0 0 185 53" fill="none" xmlns="http://www.w3.org/2000/svg">
<path d="M50.96 13.1V39H54.105V13.1H50.96ZM52.699 16.06H57.99C59.6673 16.06 61.024 16.467 62.06 17.281C63.1207 18.0703 63.651 19.2667 63.651 20.87C63.651 22.4487 63.1207 23.645 62.06 24.459C61.024 25.273 59.6673 25.68 57.99 25.68H52.699V28.64H57.99C59.6673 28.64 61.1597 28.3317 62.467 27.715C63.799 27.0737 64.8473 26.1733 65.612 25.014C66.4013 23.83 66.796 22.4487 66.796 20.87C66.796 19.2667 66.4013 17.8853 65.612 16.726C64.8473 15.5667 63.799 14.6787 62.467 14.062C61.1597 13.4207 59.6673 13.1 57.99 13.1H52.699V16.06ZM71.0455 14.95C71.0455 15.4927 71.2428 15.9737 71.6375 16.393C72.0568 16.7877 72.5378 16.985 73.0805 16.985C73.6478 16.985 74.1288 16.7877 74.5235 16.393C74.9182 15.9737 75.1155 15.4927 75.1155 14.95C75.1155 14.3827 74.9182 13.9017 74.5235 13.507C74.1288 13.1123 73.6478 12.915 73.0805 12.915C72.5378 12.915 72.0568 13.1123 71.6375 13.507C71.2428 13.9017 71.0455 14.3827 71.0455 14.95ZM71.6005 21.98V39H74.5605V21.98H71.6005ZM81.9888 30.49C81.9888 29.306 82.2355 28.2577 82.7288 27.345C83.2468 26.4077 83.9375 25.68 84.8008 25.162C85.6888 24.644 86.6878 24.385 87.7978 24.385C88.7105 24.385 89.5615 24.533 90.3508 24.829C91.1648 25.1003 91.8678 25.4703 92.4598 25.939C93.0518 26.4077 93.4712 26.9257 93.7178 27.493V23.793C93.1258 23.1023 92.2748 22.572 91.1648 22.202C90.0795 21.8073 88.9572 21.61 87.7978 21.61C86.1452 21.61 84.6528 21.9923 83.3208 22.757C81.9888 23.5217 80.9282 24.57 80.1388 25.902C79.3742 27.234 78.9918 28.7633 78.9918 30.49C78.9918 32.192 79.3742 33.7213 80.1388 35.078C80.9282 36.41 81.9888 37.4583 83.3208 38.223C84.6528 38.9877 86.1452 39.37 87.7978 39.37C88.9572 39.37 90.0795 39.185 91.1648 38.815C92.2748 38.4203 93.1258 37.8777 93.7178 37.187V33.487C93.4712 34.0297 93.0518 34.5477 92.4598 35.041C91.8678 35.5097 91.1648 35.892 90.3508 36.188C89.5615 36.4593 88.7105 36.595 87.7978 36.595C86.6878 36.595 85.6888 36.336 84.8008 35.818C83.9375 35.2753 83.2468 34.5477 82.7288 33.635C82.2355 32.7223 81.9888 31.674 81.9888 30.49ZM99.4728 31.156L96.9568 32.858C97.5241 33.9927 98.2518 35.0657 99.1398 36.077C100.052 37.0637 101.101 37.8653 102.285 38.482C103.493 39.074 104.801 39.37 106.207 39.37C107.243 39.37 108.229 39.1973 109.167 38.852C110.129 38.5067 110.98 38.0133 111.72 37.372C112.484 36.7307 113.076 35.9537 113.496 35.041C113.94 34.1283 114.162 33.1047 114.162 31.97C114.162 30.786 113.952 29.7747 113.533 28.936C113.113 28.0727 112.571 27.345 111.905 26.753C111.263 26.1363 110.56 25.6307 109.796 25.236C109.031 24.8413 108.303 24.5207 107.613 24.274C106.108 23.756 104.912 23.238 104.024 22.72C103.16 22.1773 102.544 21.61 102.174 21.018C101.804 20.4013 101.619 19.7353 101.619 19.02C101.619 18.1813 101.939 17.429 102.581 16.763C103.222 16.0723 104.246 15.727 105.652 15.727C106.663 15.727 107.514 15.9243 108.205 16.319C108.92 16.7137 109.524 17.2193 110.018 17.836C110.511 18.4527 110.918 19.0817 111.239 19.723L113.94 18.169C113.52 17.2563 112.941 16.393 112.201 15.579C111.461 14.7403 110.56 14.062 109.5 13.544C108.464 13.0013 107.243 12.73 105.837 12.73C104.381 12.73 103.086 13.026 101.952 13.618C100.817 14.1853 99.9291 14.9747 99.2878 15.986C98.6464 16.9973 98.3258 18.1443 98.3258 19.427C98.3258 20.611 98.5478 21.61 98.9918 22.424C99.4604 23.238 100.052 23.9287 100.768 24.496C101.483 25.0387 102.235 25.495 103.025 25.865C103.814 26.2103 104.529 26.494 105.171 26.716C106.157 27.0613 107.082 27.456 107.946 27.9C108.834 28.3193 109.549 28.8743 110.092 29.565C110.634 30.2557 110.906 31.1807 110.906 32.34C110.906 33.524 110.486 34.4983 109.648 35.263C108.809 36.0277 107.699 36.41 106.318 36.41C105.282 36.41 104.357 36.188 103.543 35.744C102.729 35.3 101.989 34.6833 101.323 33.894C100.681 33.1047 100.065 32.192 99.4728 31.156ZM121.556 10.14H118.596V39H121.556V10.14ZM129.511 28.64V39H132.471V28.27C132.471 26.79 132.225 25.5567 131.731 24.57C131.263 23.5833 130.584 22.8433 129.696 22.35C128.833 21.8567 127.809 21.61 126.625 21.61C125.441 21.61 124.393 21.9183 123.48 22.535C122.592 23.1517 121.889 23.9903 121.371 25.051C120.853 26.087 120.594 27.2833 120.594 28.64H121.556C121.556 27.826 121.729 27.0983 122.074 26.457C122.444 25.8157 122.95 25.31 123.591 24.94C124.257 24.57 125.022 24.385 125.885 24.385C127.094 24.385 127.994 24.7427 128.586 25.458C129.203 26.1733 129.511 27.234 129.511 28.64ZM139.368 33.746C139.368 33.1293 139.516 32.599 139.812 32.155C140.108 31.711 140.552 31.3657 141.144 31.119C141.76 30.8723 142.55 30.749 143.512 30.749C144.548 30.749 145.522 30.8847 146.435 31.156C147.347 31.4027 148.235 31.822 149.099 32.414V30.675C148.926 30.453 148.593 30.1693 148.1 29.824C147.606 29.454 146.94 29.1333 146.102 28.862C145.288 28.566 144.264 28.418 143.031 28.418C140.934 28.418 139.294 28.9237 138.11 29.935C136.95 30.9217 136.371 32.2413 136.371 33.894C136.371 35.0533 136.642 36.04 137.185 36.854C137.727 37.668 138.443 38.297 139.331 38.741C140.243 39.1603 141.218 39.37 142.254 39.37C143.191 39.37 144.128 39.1973 145.066 38.852C146.028 38.5067 146.829 37.9763 147.471 37.261C148.137 36.5457 148.47 35.6453 148.47 34.56L147.878 32.34C147.878 33.228 147.656 34.0173 147.212 34.708C146.792 35.374 146.213 35.892 145.473 36.262C144.757 36.632 143.943 36.817 143.031 36.817C142.315 36.817 141.674 36.706 141.107 36.484C140.564 36.2373 140.132 35.8797 139.812 35.411C139.516 34.9423 139.368 34.3873 139.368 33.746ZM138.924 25.902C139.195 25.7047 139.565 25.4703 140.034 25.199C140.502 24.9277 141.07 24.6933 141.736 24.496C142.426 24.2987 143.191 24.2 144.03 24.2C144.548 24.2 145.041 24.2493 145.51 24.348C145.978 24.4467 146.385 24.607 146.731 24.829C147.101 25.051 147.384 25.3593 147.582 25.754C147.779 26.124 147.878 26.605 147.878 27.197V39H150.838V26.79C150.838 25.68 150.554 24.7427 149.987 23.978C149.444 23.2133 148.667 22.6337 147.656 22.239C146.669 21.8197 145.51 21.61 144.178 21.61C142.599 21.61 141.242 21.8443 140.108 22.313C138.998 22.7817 138.122 23.2503 137.481 23.719L138.924 25.902ZM158.809 21.98H155.849V39H158.809V21.98ZM163.952 25.236L165.58 22.794C165.136 22.3253 164.643 22.017 164.1 21.869C163.582 21.6963 163.015 21.61 162.398 21.61C161.609 21.61 160.832 21.9183 160.067 22.535C159.303 23.1517 158.674 23.9903 158.18 25.051C157.712 26.087 157.477 27.2833 157.477 28.64H158.809C158.809 27.826 158.883 27.0983 159.031 26.457C159.204 25.8157 159.5 25.31 159.919 24.94C160.339 24.57 160.918 24.385 161.658 24.385C162.152 24.385 162.559 24.459 162.879 24.607C163.2 24.7303 163.558 24.94 163.952 25.236ZM174.576 39.37C176.401 39.37 177.98 39.0123 179.312 38.297C180.669 37.557 181.791 36.4717 182.679 35.041L180.274 33.524C179.657 34.56 178.905 35.337 178.017 35.855C177.129 36.3483 176.105 36.595 174.946 36.595C173.787 36.595 172.8 36.3483 171.986 35.855C171.172 35.3617 170.555 34.6463 170.136 33.709C169.717 32.7717 169.507 31.637 169.507 30.305C169.532 28.9977 169.754 27.9 170.173 27.012C170.617 26.0993 171.234 25.4087 172.023 24.94C172.837 24.4467 173.811 24.2 174.946 24.2C175.908 24.2 176.747 24.4097 177.462 24.829C178.177 25.2483 178.732 25.828 179.127 26.568C179.546 27.308 179.756 28.1837 179.756 29.195C179.756 29.3677 179.719 29.5897 179.645 29.861C179.571 30.1077 179.497 30.2927 179.423 30.416L180.607 28.714H168.397V31.23H182.938C182.938 31.1807 182.938 31.0697 182.938 30.897C182.963 30.6997 182.975 30.5147 182.975 30.342C182.975 28.5413 182.654 26.9873 182.013 25.68C181.372 24.3727 180.447 23.3737 179.238 22.683C178.054 21.9677 176.623 21.61 174.946 21.61C173.269 21.61 171.789 21.98 170.506 22.72C169.248 23.46 168.261 24.496 167.546 25.828C166.855 27.16 166.51 28.714 166.51 30.49C166.51 32.2413 166.843 33.783 167.509 35.115C168.2 36.447 169.149 37.4953 170.358 38.26C171.591 39 172.997 39.37 174.576 39.37Z" fill="#525252"/>
<path d="M40 44H8C5.8 44 4 42.2 4 40V14C4 11.8 5.8 10 8 10H40C42.2 10 44 11.8 44 14V40C44 42.2 42.2 44 40 44Z" fill="#10BBB1"/>
<path d="M35 22C36.6569 22 38 20.6569 38 19C38 17.3431 36.6569 16 35 16C33.3431 16 32 17.3431 32 19C32 20.6569 33.3431 22 35 22Z" fill="#FFF9C4"/>
<path d="M20 19L9 35H31L20 19Z" fill="#942A09"/>
<path d="M31 25L23 35H39L31 25Z" fill="#BF360C"/>
</svg>
